# xmcd
#
# Track frame offsets: 
#        150
#        21600
#        40122
#        59875
#        76417
#        101197
#        118142
#        136545
#        152702
#        168780
#        190525
#
# Disc length: 2808 seconds
#
# Revision: 0
# Processed by: cddbd v1.5.1PL0 Copyright (c) Steve Scherf et al.
# Submitted via: ExactAudioCopy v0.95a5
#
DISCID=8f0af60b
DTITLE=Zacarias Ferreira - Quiereme
DYEAR=2005
DGENRE=Latin
TTITLE0=Mañana En Tu Olvido
TTITLE1=Cuanto Duele Que Te Vas
TTITLE2=La Avispa
TTITLE3=Prieta Linda
TTITLE4=Eva Maria
TTITLE5=Ella Mueve Tan Linda Sus Caderas
TTITLE6=Quiereme Mucho
TTITLE7=Te Quiero
TTITLE8=Te Extraño
TTITLE9=Sin Tu Amor No Hay Vida
TTITLE10=Te Saqué De La Mente
EXTD=
EXTT0=
EXTT1=
EXTT2=
EXTT3=
EXTT4=
EXTT5=
EXTT6=
EXTT7=
EXTT8=
EXTT9=
EXTT10=
PLAYORDER=
